<svg width="1440" height="1024" viewBox="0 0 1440 1024" fill="none" xmlns="http://www.w3.org/2000/svg">
<path d="M413.625 338.75C413.625 342.286 412.688 344.487 410.823 345.292C410.28 345.521 409.694 345.634 409.105 345.625C408.663 345.621 408.224 345.572 407.792 345.48C407.633 345.448 407.492 345.356 407.398 345.223C405.204 342.105 402.704 339.213 399.938 336.589C399.697 336.361 399.375 336.238 399.044 336.247C398.712 336.256 398.398 336.397 398.17 336.638C397.942 336.878 397.819 337.2 397.829 337.531C397.838 337.863 397.978 338.177 398.219 338.405C400.537 340.578 408.239 348.325 410.456 357.197C410.537 357.518 410.486 357.859 410.315 358.143C410.145 358.427 409.868 358.632 409.547 358.712C409.45 358.737 409.35 358.749 409.25 358.75C408.972 358.75 408.701 358.656 408.482 358.485C408.262 358.313 408.107 358.073 408.039 357.803C407.395 355.23 406.219 352.728 404.842 350.445C404.798 350.833 404.698 351.213 404.545 351.572C403.737 353.438 401.536 354.375 398 354.375C394.464 354.375 392.263 353.438 391.456 351.572C390.605 349.606 391.395 346.756 393.8 343.102C393.906 342.945 394.013 342.789 394.113 342.633L393.644 342.945C390.944 344.73 388.68 345.625 386.889 345.625C386.299 345.634 385.714 345.521 385.17 345.292C383.312 344.487 382.375 342.286 382.375 338.75C382.375 335.214 383.312 333.013 385.177 332.206C387.144 331.355 389.994 332.145 393.648 334.55L394.117 334.863L393.805 334.394C391.397 330.739 390.606 327.889 391.461 325.922C392.262 324.063 394.464 323.125 398 323.125C401.536 323.125 403.738 324.062 404.544 325.927C405.395 327.894 404.605 330.744 402.2 334.398C402.096 334.558 401.992 334.714 401.888 334.867L402.356 334.555C406.011 332.147 408.861 331.356 410.828 332.211C412.688 333.012 413.625 335.214 413.625 338.75Z" fill="#7EB26D"/>
<path d="M957.625 422.75C957.625 426.286 956.688 428.487 954.823 429.292C954.28 429.521 953.694 429.634 953.105 429.625C952.663 429.621 952.224 429.572 951.792 429.48C951.633 429.448 951.492 429.356 951.398 429.223C949.204 426.105 946.704 423.213 943.938 420.589C943.697 420.361 943.375 420.238 943.044 420.247C942.712 420.256 942.398 420.397 942.17 420.638C941.942 420.878 941.819 421.2 941.829 421.531C941.838 421.863 941.978 422.177 942.219 422.405C944.537 424.578 952.239 432.325 954.456 441.197C954.537 441.518 954.486 441.859 954.315 442.143C954.145 442.427 953.868 442.632 953.547 442.712C953.45 442.737 953.35 442.749 953.25 442.75C952.972 442.75 952.701 442.656 952.482 442.485C952.262 442.313 952.107 442.073 952.039 441.803C951.395 439.23 950.219 436.728 948.842 434.445C948.798 434.833 948.698 435.213 948.545 435.572C947.737 437.438 945.536 438.375 942 438.375C938.464 438.375 936.263 437.438 935.456 435.572C934.605 433.606 935.395 430.756 937.8 427.102C937.906 426.945 938.013 426.789 938.113 426.633L937.644 426.945C934.944 428.73 932.68 429.625 930.889 429.625C930.299 429.634 929.714 429.521 929.17 429.292C927.312 428.487 926.375 426.286 926.375 422.75C926.375 419.214 927.312 417.013 929.177 416.206C931.144 415.355 933.994 416.145 937.648 418.55L938.117 418.863L937.805 418.394C935.397 414.739 934.606 411.889 935.461 409.922C936.262 408.063 938.464 407.125 942 407.125C945.536 407.125 947.738 408.062 948.544 409.927C949.395 411.894 948.605 414.744 946.2 418.398C946.096 418.558 945.992 418.714 945.888 418.867L946.356 418.555C950.011 416.147 952.861 415.356 954.828 416.211C956.688 417.012 957.625 419.214 957.625 422.75Z" fill="#7EB26D"/>
<path d="M1442.62 212.75C1442.62 216.286 1441.69 218.487 1439.82 219.292C1439.28 219.521 1438.69 219.634 1438.1 219.625C1437.66 219.621 1437.22 219.572 1436.79 219.48C1436.63 219.448 1436.49 219.356 1436.4 219.223C1434.2 216.105 1431.7 213.213 1428.94 210.589C1428.7 210.361 1428.38 210.238 1428.04 210.247C1427.71 210.256 1427.4 210.397 1427.17 210.638C1426.94 210.878 1426.82 211.2 1426.83 211.531C1426.84 211.863 1426.98 212.177 1427.22 212.405C1429.54 214.578 1437.24 222.325 1439.46 231.197C1439.54 231.518 1439.49 231.859 1439.32 232.143C1439.14 232.427 1438.87 232.632 1438.55 232.712C1438.45 232.737 1438.35 232.749 1438.25 232.75C1437.97 232.75 1437.7 232.656 1437.48 232.485C1437.26 232.313 1437.11 232.073 1437.04 231.803C1436.4 229.23 1435.22 226.728 1433.84 224.445C1433.8 224.833 1433.7 225.213 1433.55 225.572C1432.74 227.438 1430.54 228.375 1427 228.375C1423.46 228.375 1421.26 227.438 1420.46 225.572C1419.6 223.606 1420.4 220.756 1422.8 217.102C1422.91 216.945 1423.01 216.789 1423.11 216.633L1422.64 216.945C1419.94 218.73 1417.68 219.625 1415.89 219.625C1415.3 219.634 1414.71 219.521 1414.17 219.292C1412.31 218.487 1411.38 216.286 1411.38 212.75C1411.38 209.214 1412.31 207.013 1414.18 206.206C1416.14 205.355 1418.99 206.145 1422.65 208.55L1423.12 208.863L1422.8 208.394C1420.4 204.739 1419.61 201.889 1420.46 199.922C1421.26 198.063 1423.46 197.125 1427 197.125C1430.54 197.125 1432.74 198.062 1433.54 199.927C1434.4 201.894 1433.6 204.744 1431.2 208.398C1431.1 208.558 1430.99 208.714 1430.89 208.867L1431.36 208.555C1435.01 206.147 1437.86 205.356 1439.83 206.211C1441.69 207.012 1442.62 209.214 1442.62 212.75Z" fill="#7EB26D"/>
<path d="M1452.62 502.75C1452.62 506.286 1451.69 508.487 1449.82 509.292C1449.28 509.521 1448.69 509.634 1448.1 509.625C1447.66 509.621 1447.22 509.572 1446.79 509.48C1446.63 509.448 1446.49 509.356 1446.4 509.223C1444.2 506.105 1441.7 503.213 1438.94 500.589C1438.7 500.361 1438.38 500.238 1438.04 500.247C1437.71 500.256 1437.4 500.397 1437.17 500.638C1436.94 500.878 1436.82 501.2 1436.83 501.531C1436.84 501.863 1436.98 502.177 1437.22 502.405C1439.54 504.578 1447.24 512.325 1449.46 521.197C1449.54 521.518 1449.49 521.859 1449.32 522.143C1449.14 522.427 1448.87 522.632 1448.55 522.712C1448.45 522.737 1448.35 522.749 1448.25 522.75C1447.97 522.75 1447.7 522.656 1447.48 522.485C1447.26 522.313 1447.11 522.073 1447.04 521.803C1446.4 519.23 1445.22 516.728 1443.84 514.445C1443.8 514.833 1443.7 515.213 1443.55 515.572C1442.74 517.438 1440.54 518.375 1437 518.375C1433.46 518.375 1431.26 517.438 1430.46 515.572C1429.6 513.606 1430.4 510.756 1432.8 507.102C1432.91 506.945 1433.01 506.789 1433.11 506.633L1432.64 506.945C1429.94 508.73 1427.68 509.625 1425.89 509.625C1425.3 509.634 1424.71 509.521 1424.17 509.292C1422.31 508.487 1421.38 506.286 1421.38 502.75C1421.38 499.214 1422.31 497.013 1424.18 496.206C1426.14 495.355 1428.99 496.145 1432.65 498.55L1433.12 498.863L1432.8 498.394C1430.4 494.739 1429.61 491.889 1430.46 489.922C1431.26 488.063 1433.46 487.125 1437 487.125C1440.54 487.125 1442.74 488.062 1443.54 489.927C1444.4 491.894 1443.6 494.744 1441.2 498.398C1441.1 498.558 1440.99 498.714 1440.89 498.867L1441.36 498.555C1445.01 496.147 1447.86 495.356 1449.83 496.211C1451.69 497.012 1452.62 499.214 1452.62 502.75Z" fill="#7EB26D"/>
<path d="M267.625 456.75C267.625 460.286 266.688 462.487 264.823 463.292C264.28 463.521 263.694 463.634 263.105 463.625C262.663 463.621 262.224 463.572 261.792 463.48C261.633 463.448 261.492 463.356 261.398 463.223C259.204 460.105 256.704 457.213 253.938 454.589C253.697 454.361 253.375 454.238 253.044 454.247C252.712 454.256 252.398 454.397 252.17 454.638C251.942 454.878 251.819 455.2 251.829 455.531C251.838 455.863 251.978 456.177 252.219 456.405C254.537 458.578 262.239 466.325 264.456 475.197C264.537 475.518 264.486 475.859 264.315 476.143C264.145 476.427 263.868 476.632 263.547 476.712C263.45 476.737 263.35 476.749 263.25 476.75C262.972 476.75 262.701 476.656 262.482 476.485C262.262 476.313 262.107 476.073 262.039 475.803C261.395 473.23 260.219 470.728 258.842 468.445C258.798 468.833 258.698 469.213 258.545 469.572C257.737 471.438 255.536 472.375 252 472.375C248.464 472.375 246.263 471.438 245.456 469.572C244.605 467.606 245.395 464.756 247.8 461.102C247.906 460.945 248.013 460.789 248.113 460.633L247.644 460.945C244.944 462.73 242.68 463.625 240.889 463.625C240.299 463.634 239.714 463.521 239.17 463.292C237.312 462.487 236.375 460.286 236.375 456.75C236.375 453.214 237.312 451.013 239.177 450.206C241.144 449.355 243.994 450.145 247.648 452.55L248.117 452.863L247.805 452.394C245.397 448.739 244.606 445.889 245.461 443.922C246.262 442.063 248.464 441.125 252 441.125C255.536 441.125 257.738 442.062 258.544 443.927C259.395 445.894 258.605 448.744 256.2 452.398C256.096 452.558 255.992 452.714 255.888 452.867L256.356 452.555C260.011 450.147 262.861 449.356 264.828 450.211C266.688 451.012 267.625 453.214 267.625 456.75Z" fill="#7EB26D"/>
<path d="M811.625 540.75C811.625 544.286 810.688 546.487 808.823 547.292C808.28 547.521 807.694 547.634 807.105 547.625C806.663 547.621 806.224 547.572 805.792 547.48C805.633 547.448 805.492 547.356 805.398 547.223C803.204 544.105 800.704 541.213 797.938 538.589C797.697 538.361 797.375 538.238 797.044 538.247C796.712 538.256 796.398 538.397 796.17 538.638C795.942 538.878 795.819 539.2 795.829 539.531C795.838 539.863 795.978 540.177 796.219 540.405C798.537 542.578 806.239 550.325 808.456 559.197C808.537 559.518 808.486 559.859 808.315 560.143C808.145 560.427 807.868 560.632 807.547 560.712C807.45 560.737 807.35 560.749 807.25 560.75C806.972 560.75 806.701 560.656 806.482 560.485C806.262 560.313 806.107 560.073 806.039 559.803C805.395 557.23 804.219 554.728 802.842 552.445C802.798 552.833 802.698 553.213 802.545 553.572C801.737 555.438 799.536 556.375 796 556.375C792.464 556.375 790.263 555.438 789.456 553.572C788.605 551.606 789.395 548.756 791.8 545.102C791.906 544.945 792.013 544.789 792.113 544.633L791.644 544.945C788.944 546.73 786.68 547.625 784.889 547.625C784.299 547.634 783.714 547.521 783.17 547.292C781.312 546.487 780.375 544.286 780.375 540.75C780.375 537.214 781.312 535.013 783.177 534.206C785.144 533.355 787.994 534.145 791.648 536.55L792.117 536.863L791.805 536.394C789.397 532.739 788.606 529.889 789.461 527.922C790.262 526.063 792.464 525.125 796 525.125C799.536 525.125 801.738 526.062 802.544 527.927C803.395 529.894 802.605 532.744 800.2 536.398C800.096 536.558 799.992 536.714 799.888 536.867L800.356 536.555C804.011 534.147 806.861 533.356 808.828 534.211C810.688 535.012 811.625 537.214 811.625 540.75Z" fill="#7EB26D"/>
<path d="M1310.62 318.75C1310.62 322.286 1309.69 324.487 1307.82 325.292C1307.28 325.521 1306.69 325.634 1306.1 325.625C1305.66 325.621 1305.22 325.572 1304.79 325.48C1304.63 325.448 1304.49 325.356 1304.4 325.223C1302.2 322.105 1299.7 319.213 1296.94 316.589C1296.7 316.361 1296.38 316.238 1296.04 316.247C1295.71 316.256 1295.4 316.397 1295.17 316.638C1294.94 316.878 1294.82 317.2 1294.83 317.531C1294.84 317.863 1294.98 318.177 1295.22 318.405C1297.54 320.578 1305.24 328.325 1307.46 337.197C1307.54 337.518 1307.49 337.859 1307.32 338.143C1307.14 338.427 1306.87 338.632 1306.55 338.712C1306.45 338.737 1306.35 338.749 1306.25 338.75C1305.97 338.75 1305.7 338.656 1305.48 338.485C1305.26 338.313 1305.11 338.073 1305.04 337.803C1304.4 335.23 1303.22 332.728 1301.84 330.445C1301.8 330.833 1301.7 331.213 1301.55 331.572C1300.74 333.438 1298.54 334.375 1295 334.375C1291.46 334.375 1289.26 333.438 1288.46 331.572C1287.6 329.606 1288.4 326.756 1290.8 323.102C1290.91 322.945 1291.01 322.789 1291.11 322.633L1290.64 322.945C1287.94 324.73 1285.68 325.625 1283.89 325.625C1283.3 325.634 1282.71 325.521 1282.17 325.292C1280.31 324.487 1279.38 322.286 1279.38 318.75C1279.38 315.214 1280.31 313.013 1282.18 312.206C1284.14 311.355 1286.99 312.145 1290.65 314.55L1291.12 314.863L1290.8 314.394C1288.4 310.739 1287.61 307.889 1288.46 305.922C1289.26 304.063 1291.46 303.125 1295 303.125C1298.54 303.125 1300.74 304.062 1301.54 305.927C1302.4 307.894 1301.6 310.744 1299.2 314.398C1299.1 314.558 1298.99 314.714 1298.89 314.867L1299.36 314.555C1303.01 312.147 1305.86 311.356 1307.83 312.211C1309.69 313.012 1310.62 315.214 1310.62 318.75Z" fill="#7EB26D"/>
<path d="M82.625 613.75C82.625 617.286 81.6875 619.487 79.8234 620.292C79.2797 620.521 78.6945 620.634 78.1047 620.625C77.6634 620.621 77.2237 620.572 76.7922 620.48C76.6329 620.448 76.4919 620.356 76.3984 620.223C74.2035 617.105 71.7043 614.213 68.9375 611.589C68.6967 611.361 68.3753 611.238 68.0439 611.247C67.7125 611.256 67.3982 611.397 67.1703 611.638C66.9424 611.878 66.8195 612.2 66.8285 612.531C66.8376 612.863 66.978 613.177 67.2187 613.405C69.5375 615.578 77.2391 623.325 79.4562 632.197C79.5366 632.518 79.4859 632.859 79.3154 633.143C79.1449 633.427 78.8684 633.632 78.5469 633.712C78.4498 633.737 78.3501 633.749 78.25 633.75C77.9715 633.75 77.7012 633.656 77.4818 633.485C77.2624 633.313 77.1066 633.073 77.0391 632.803C76.3953 630.23 75.2187 627.728 73.8422 625.445C73.7981 625.833 73.6981 626.213 73.5453 626.572C72.7375 628.438 70.5359 629.375 67 629.375C63.4641 629.375 61.2625 628.438 60.4563 626.572C59.6047 624.606 60.3953 621.756 62.8 618.102C62.9062 617.945 63.0125 617.789 63.1125 617.633L62.6438 617.945C59.9438 619.73 57.6797 620.625 55.8891 620.625C55.2993 620.634 54.7141 620.521 54.1703 620.292C52.3125 619.487 51.375 617.286 51.375 613.75C51.375 610.214 52.3125 608.013 54.1766 607.206C56.1438 606.355 58.9938 607.145 62.6484 609.55L63.1172 609.863L62.8047 609.394C60.3969 605.739 59.6062 602.889 60.4609 600.922C61.2625 599.063 63.4641 598.125 67 598.125C70.5359 598.125 72.7375 599.062 73.5438 600.927C74.3953 602.894 73.6047 605.744 71.2 609.398C71.0958 609.558 70.9917 609.714 70.8875 609.867L71.3563 609.555C75.0109 607.147 77.8609 606.356 79.8281 607.211C81.6875 608.012 82.625 610.214 82.625 613.75Z" fill="#7EB26D"/>
<path d="M618.625 674.75C618.625 678.286 617.688 680.487 615.823 681.292C615.28 681.521 614.694 681.634 614.105 681.625C613.663 681.621 613.224 681.572 612.792 681.48C612.633 681.448 612.492 681.356 612.398 681.223C610.204 678.105 607.704 675.213 604.938 672.589C604.697 672.361 604.375 672.238 604.044 672.247C603.712 672.256 603.398 672.397 603.17 672.638C602.942 672.878 602.819 673.2 602.829 673.531C602.838 673.863 602.978 674.177 603.219 674.405C605.537 676.578 613.239 684.325 615.456 693.197C615.537 693.518 615.486 693.859 615.315 694.143C615.145 694.427 614.868 694.632 614.547 694.712C614.45 694.737 614.35 694.749 614.25 694.75C613.972 694.75 613.701 694.656 613.482 694.485C613.262 694.313 613.107 694.073 613.039 693.803C612.395 691.23 611.219 688.728 609.842 686.445C609.798 686.833 609.698 687.213 609.545 687.572C608.737 689.438 606.536 690.375 603 690.375C599.464 690.375 597.263 689.438 596.456 687.572C595.605 685.606 596.395 682.756 598.8 679.102C598.906 678.945 599.013 678.789 599.113 678.633L598.644 678.945C595.944 680.73 593.68 681.625 591.889 681.625C591.299 681.634 590.714 681.521 590.17 681.292C588.312 680.487 587.375 678.286 587.375 674.75C587.375 671.214 588.312 669.013 590.177 668.206C592.144 667.355 594.994 668.145 598.648 670.55L599.117 670.863L598.805 670.394C596.397 666.739 595.606 663.889 596.461 661.922C597.262 660.063 599.464 659.125 603 659.125C606.536 659.125 608.738 660.062 609.544 661.927C610.395 663.894 609.605 666.744 607.2 670.398C607.096 670.558 606.992 670.714 606.888 670.867L607.356 670.555C611.011 668.147 613.861 667.356 615.828 668.211C617.688 669.012 618.625 671.214 618.625 674.75Z" fill="#7EB26D"/>
<path d="M1168.62 522.75C1168.62 526.286 1167.69 528.487 1165.82 529.292C1165.28 529.521 1164.69 529.634 1164.1 529.625C1163.66 529.621 1163.22 529.572 1162.79 529.48C1162.63 529.448 1162.49 529.356 1162.4 529.223C1160.2 526.105 1157.7 523.213 1154.94 520.589C1154.7 520.361 1154.38 520.238 1154.04 520.247C1153.71 520.256 1153.4 520.397 1153.17 520.638C1152.94 520.878 1152.82 521.2 1152.83 521.531C1152.84 521.863 1152.98 522.177 1153.22 522.405C1155.54 524.578 1163.24 532.325 1165.46 541.197C1165.54 541.518 1165.49 541.859 1165.32 542.143C1165.14 542.427 1164.87 542.632 1164.55 542.712C1164.45 542.737 1164.35 542.749 1164.25 542.75C1163.97 542.75 1163.7 542.656 1163.48 542.485C1163.26 542.313 1163.11 542.073 1163.04 541.803C1162.4 539.23 1161.22 536.728 1159.84 534.445C1159.8 534.833 1159.7 535.213 1159.55 535.572C1158.74 537.438 1156.54 538.375 1153 538.375C1149.46 538.375 1147.26 537.438 1146.46 535.572C1145.6 533.606 1146.4 530.756 1148.8 527.102C1148.91 526.945 1149.01 526.789 1149.11 526.633L1148.64 526.945C1145.94 528.73 1143.68 529.625 1141.89 529.625C1141.3 529.634 1140.71 529.521 1140.17 529.292C1138.31 528.487 1137.38 526.286 1137.38 522.75C1137.38 519.214 1138.31 517.013 1140.18 516.206C1142.14 515.355 1144.99 516.145 1148.65 518.55L1149.12 518.863L1148.8 518.394C1146.4 514.739 1145.61 511.889 1146.46 509.922C1147.26 508.063 1149.46 507.125 1153 507.125C1156.54 507.125 1158.74 508.062 1159.54 509.927C1160.4 511.894 1159.6 514.744 1157.2 518.398C1157.1 518.558 1156.99 518.714 1156.89 518.867L1157.36 518.555C1161.01 516.147 1163.86 515.356 1165.83 516.211C1167.69 517.012 1168.62 519.214 1168.62 522.75Z" fill="#7EB26D"/>
<path d="M328.625 145.75C328.625 149.286 327.688 151.487 325.823 152.292C325.28 152.521 324.694 152.634 324.105 152.625C323.663 152.621 323.224 152.572 322.792 152.48C322.633 152.448 322.492 152.356 322.398 152.223C320.204 149.105 317.704 146.213 314.938 143.589C314.697 143.361 314.375 143.238 314.044 143.247C313.712 143.256 313.398 143.397 313.17 143.638C312.942 143.878 312.819 144.2 312.829 144.531C312.838 144.863 312.978 145.177 313.219 145.405C315.537 147.578 323.239 155.325 325.456 164.197C325.537 164.518 325.486 164.859 325.315 165.143C325.145 165.427 324.868 165.632 324.547 165.712C324.45 165.737 324.35 165.749 324.25 165.75C323.972 165.75 323.701 165.656 323.482 165.485C323.262 165.313 323.107 165.073 323.039 164.803C322.395 162.23 321.219 159.728 319.842 157.445C319.798 157.833 319.698 158.213 319.545 158.572C318.737 160.438 316.536 161.375 313 161.375C309.464 161.375 307.263 160.438 306.456 158.572C305.605 156.606 306.395 153.756 308.8 150.102C308.906 149.945 309.013 149.789 309.113 149.633L308.644 149.945C305.944 151.73 303.68 152.625 301.889 152.625C301.299 152.634 300.714 152.521 300.17 152.292C298.312 151.487 297.375 149.286 297.375 145.75C297.375 142.214 298.312 140.013 300.177 139.206C302.144 138.355 304.994 139.145 308.648 141.55L309.117 141.863L308.805 141.394C306.397 137.739 305.606 134.889 306.461 132.922C307.262 131.063 309.464 130.125 313 130.125C316.536 130.125 318.738 131.062 319.544 132.927C320.395 134.894 319.605 137.744 317.2 141.398C317.096 141.558 316.992 141.714 316.888 141.867L317.356 141.555C321.011 139.147 323.861 138.356 325.828 139.211C327.688 140.012 328.625 142.214 328.625 145.75Z" fill="#7EB26D"/>
<path d="M872.625 229.75C872.625 233.286 871.688 235.487 869.823 236.292C869.28 236.521 868.694 236.634 868.105 236.625C867.663 236.621 867.224 236.572 866.792 236.48C866.633 236.448 866.492 236.356 866.398 236.223C864.204 233.105 861.704 230.213 858.938 227.589C858.697 227.361 858.375 227.238 858.044 227.247C857.712 227.256 857.398 227.397 857.17 227.638C856.942 227.878 856.819 228.2 856.829 228.531C856.838 228.863 856.978 229.177 857.219 229.405C859.537 231.578 867.239 239.325 869.456 248.197C869.537 248.518 869.486 248.859 869.315 249.143C869.145 249.427 868.868 249.632 868.547 249.712C868.45 249.737 868.35 249.749 868.25 249.75C867.972 249.75 867.701 249.656 867.482 249.485C867.262 249.313 867.107 249.073 867.039 248.803C866.395 246.23 865.219 243.728 863.842 241.445C863.798 241.833 863.698 242.213 863.545 242.572C862.737 244.438 860.536 245.375 857 245.375C853.464 245.375 851.263 244.438 850.456 242.572C849.605 240.606 850.395 237.756 852.8 234.102C852.906 233.945 853.013 233.789 853.113 233.633L852.644 233.945C849.944 235.73 847.68 236.625 845.889 236.625C845.299 236.634 844.714 236.521 844.17 236.292C842.312 235.487 841.375 233.286 841.375 229.75C841.375 226.214 842.312 224.013 844.177 223.206C846.144 222.355 848.994 223.145 852.648 225.55L853.117 225.863L852.805 225.394C850.397 221.739 849.606 218.889 850.461 216.922C851.262 215.063 853.464 214.125 857 214.125C860.536 214.125 862.738 215.062 863.544 216.927C864.395 218.894 863.605 221.744 861.2 225.398C861.096 225.558 860.992 225.714 860.888 225.867L861.356 225.555C865.011 223.147 867.861 222.356 869.828 223.211C871.688 224.012 872.625 226.214 872.625 229.75Z" fill="#7EB26D"/>
<path d="M1383.62 56.75C1383.62 60.2859 1382.69 62.4875 1380.82 63.2922C1380.28 63.5208 1379.69 63.6341 1379.1 63.625C1378.66 63.621 1378.22 63.5723 1377.79 63.4797C1377.63 63.448 1377.49 63.3562 1377.4 63.2234C1375.2 60.1054 1372.7 57.213 1369.94 54.5891C1369.7 54.3611 1369.38 54.2382 1369.04 54.2473C1368.71 54.2564 1368.4 54.3967 1368.17 54.6375C1367.94 54.8783 1367.82 55.1997 1367.83 55.5311C1367.84 55.8625 1367.98 56.1768 1368.22 56.4047C1370.54 58.5781 1378.24 66.325 1380.46 75.1969C1380.54 75.5184 1380.49 75.8588 1380.32 76.143C1380.14 76.4272 1379.87 76.6321 1379.55 76.7125C1379.45 76.7368 1379.35 76.7494 1379.25 76.75C1378.97 76.7496 1378.7 76.6562 1378.48 76.4847C1378.26 76.3132 1378.11 76.0733 1378.04 75.8031C1377.4 73.2297 1376.22 70.7281 1374.84 68.4453C1374.8 68.8332 1374.7 69.2126 1374.55 69.5719C1373.74 71.4375 1371.54 72.375 1368 72.375C1364.46 72.375 1362.26 71.4375 1361.46 69.5719C1360.6 67.6062 1361.4 64.7563 1363.8 61.1016C1363.91 60.9453 1364.01 60.7891 1364.11 60.6328L1363.64 60.9453C1360.94 62.7297 1358.68 63.625 1356.89 63.625C1356.3 63.6341 1355.71 63.5208 1355.17 63.2922C1353.31 62.4875 1352.38 60.2859 1352.38 56.75C1352.38 53.2141 1353.31 51.0125 1355.18 50.2063C1357.14 49.3547 1359.99 50.1453 1363.65 52.55L1364.12 52.8625L1363.8 52.3938C1361.4 48.7391 1360.61 45.8891 1361.46 43.9219C1362.26 42.0625 1364.46 41.125 1368 41.125C1371.54 41.125 1373.74 42.0625 1374.54 43.9266C1375.4 45.8938 1374.6 48.7438 1372.2 52.3984C1372.1 52.5578 1371.99 52.7141 1371.89 52.8672L1372.36 52.5547C1376.01 50.1469 1378.86 49.3562 1380.83 50.2109C1382.69 51.0125 1383.62 53.2141 1383.62 56.75Z" fill="#7EB26D"/>
<path d="M153.625 241.75C153.625 245.286 152.688 247.487 150.823 248.292C150.28 248.521 149.694 248.634 149.105 248.625C148.663 248.621 148.224 248.572 147.792 248.48C147.633 248.448 147.492 248.356 147.398 248.223C145.204 245.105 142.704 242.213 139.938 239.589C139.697 239.361 139.375 239.238 139.044 239.247C138.712 239.256 138.398 239.397 138.17 239.638C137.942 239.878 137.819 240.2 137.829 240.531C137.838 240.863 137.978 241.177 138.219 241.405C140.537 243.578 148.239 251.325 150.456 260.197C150.537 260.518 150.486 260.859 150.315 261.143C150.145 261.427 149.868 261.632 149.547 261.712C149.45 261.737 149.35 261.749 149.25 261.75C148.972 261.75 148.701 261.656 148.482 261.485C148.262 261.313 148.107 261.073 148.039 260.803C147.395 258.23 146.219 255.728 144.842 253.445C144.798 253.833 144.698 254.213 144.545 254.572C143.737 256.438 141.536 257.375 138 257.375C134.464 257.375 132.263 256.438 131.456 254.572C130.605 252.606 131.395 249.756 133.8 246.102C133.906 245.945 134.013 245.789 134.113 245.633L133.644 245.945C130.944 247.73 128.68 248.625 126.889 248.625C126.299 248.634 125.714 248.521 125.17 248.292C123.312 247.487 122.375 245.286 122.375 241.75C122.375 238.214 123.312 236.013 125.177 235.206C127.144 234.355 129.994 235.145 133.648 237.55L134.117 237.863L133.805 237.394C131.397 233.739 130.606 230.889 131.461 228.922C132.262 227.063 134.464 226.125 138 226.125C141.536 226.125 143.738 227.062 144.544 228.927C145.395 230.894 144.605 233.744 142.2 237.398C142.096 237.558 141.992 237.714 141.888 237.867L142.356 237.555C146.011 235.147 148.861 234.356 150.828 235.211C152.688 236.012 153.625 238.214 153.625 241.75Z" fill="#7EB26D"/>
<path d="M697.625 325.75C697.625 329.286 696.688 331.487 694.823 332.292C694.28 332.521 693.694 332.634 693.105 332.625C692.663 332.621 692.224 332.572 691.792 332.48C691.633 332.448 691.492 332.356 691.398 332.223C689.204 329.105 686.704 326.213 683.938 323.589C683.697 323.361 683.375 323.238 683.044 323.247C682.712 323.256 682.398 323.397 682.17 323.638C681.942 323.878 681.819 324.2 681.829 324.531C681.838 324.863 681.978 325.177 682.219 325.405C684.537 327.578 692.239 335.325 694.456 344.197C694.537 344.518 694.486 344.859 694.315 345.143C694.145 345.427 693.868 345.632 693.547 345.712C693.45 345.737 693.35 345.749 693.25 345.75C692.972 345.75 692.701 345.656 692.482 345.485C692.262 345.313 692.107 345.073 692.039 344.803C691.395 342.23 690.219 339.728 688.842 337.445C688.798 337.833 688.698 338.213 688.545 338.572C687.737 340.438 685.536 341.375 682 341.375C678.464 341.375 676.263 340.438 675.456 338.572C674.605 336.606 675.395 333.756 677.8 330.102C677.906 329.945 678.013 329.789 678.113 329.633L677.644 329.945C674.944 331.73 672.68 332.625 670.889 332.625C670.299 332.634 669.714 332.521 669.17 332.292C667.312 331.487 666.375 329.286 666.375 325.75C666.375 322.214 667.312 320.013 669.177 319.206C671.144 318.355 673.994 319.145 677.648 321.55L678.117 321.863L677.805 321.394C675.397 317.739 674.606 314.889 675.461 312.922C676.262 311.063 678.464 310.125 682 310.125C685.536 310.125 687.738 311.062 688.544 312.927C689.395 314.894 688.605 317.744 686.2 321.398C686.096 321.558 685.992 321.714 685.888 321.867L686.356 321.555C690.011 319.147 692.861 318.356 694.828 319.211C696.688 320.012 697.625 322.214 697.625 325.75Z" fill="#7EB26D"/>
<path d="M1208.62 152.75C1208.62 156.286 1207.69 158.487 1205.82 159.292C1205.28 159.521 1204.69 159.634 1204.1 159.625C1203.66 159.621 1203.22 159.572 1202.79 159.48C1202.63 159.448 1202.49 159.356 1202.4 159.223C1200.2 156.105 1197.7 153.213 1194.94 150.589C1194.7 150.361 1194.38 150.238 1194.04 150.247C1193.71 150.256 1193.4 150.397 1193.17 150.638C1192.94 150.878 1192.82 151.2 1192.83 151.531C1192.84 151.863 1192.98 152.177 1193.22 152.405C1195.54 154.578 1203.24 162.325 1205.46 171.197C1205.54 171.518 1205.49 171.859 1205.32 172.143C1205.14 172.427 1204.87 172.632 1204.55 172.712C1204.45 172.737 1204.35 172.749 1204.25 172.75C1203.97 172.75 1203.7 172.656 1203.48 172.485C1203.26 172.313 1203.11 172.073 1203.04 171.803C1202.4 169.23 1201.22 166.728 1199.84 164.445C1199.8 164.833 1199.7 165.213 1199.55 165.572C1198.74 167.438 1196.54 168.375 1193 168.375C1189.46 168.375 1187.26 167.438 1186.46 165.572C1185.6 163.606 1186.4 160.756 1188.8 157.102C1188.91 156.945 1189.01 156.789 1189.11 156.633L1188.64 156.945C1185.94 158.73 1183.68 159.625 1181.89 159.625C1181.3 159.634 1180.71 159.521 1180.17 159.292C1178.31 158.487 1177.38 156.286 1177.38 152.75C1177.38 149.214 1178.31 147.013 1180.18 146.206C1182.14 145.355 1184.99 146.145 1188.65 148.55L1189.12 148.863L1188.8 148.394C1186.4 144.739 1185.61 141.889 1186.46 139.922C1187.26 138.063 1189.46 137.125 1193 137.125C1196.54 137.125 1198.74 138.062 1199.54 139.927C1200.4 141.894 1199.6 144.744 1197.2 148.398C1197.1 148.558 1196.99 148.714 1196.89 148.867L1197.36 148.555C1201.01 146.147 1203.86 145.356 1205.83 146.211C1207.69 147.012 1208.62 149.214 1208.62 152.75Z" fill="#7EB26D"/>
<path d="M215.625 28.75C215.625 32.2859 214.688 34.4875 212.823 35.2922C212.28 35.5208 211.694 35.6341 211.105 35.625C210.663 35.621 210.224 35.5723 209.792 35.4797C209.633 35.448 209.492 35.3562 209.398 35.2234C207.204 32.1054 204.704 29.213 201.938 26.5891C201.697 26.3611 201.375 26.2382 201.044 26.2473C200.712 26.2564 200.398 26.3967 200.17 26.6375C199.942 26.8783 199.819 27.1997 199.829 27.5311C199.838 27.8625 199.978 28.1768 200.219 28.4047C202.537 30.5781 210.239 38.325 212.456 47.1969C212.537 47.5184 212.486 47.8588 212.315 48.143C212.145 48.4272 211.868 48.6321 211.547 48.7125C211.45 48.7368 211.35 48.7494 211.25 48.75C210.972 48.7496 210.701 48.6562 210.482 48.4847C210.262 48.3132 210.107 48.0733 210.039 47.8031C209.395 45.2297 208.219 42.7281 206.842 40.4453C206.798 40.8332 206.698 41.2126 206.545 41.5719C205.737 43.4375 203.536 44.375 200 44.375C196.464 44.375 194.263 43.4375 193.456 41.5719C192.605 39.6062 193.395 36.7563 195.8 33.1016C195.906 32.9453 196.013 32.7891 196.113 32.6328L195.644 32.9453C192.944 34.7297 190.68 35.625 188.889 35.625C188.299 35.6341 187.714 35.5208 187.17 35.2922C185.312 34.4875 184.375 32.2859 184.375 28.75C184.375 25.2141 185.312 23.0125 187.177 22.2063C189.144 21.3547 191.994 22.1453 195.648 24.55L196.117 24.8625L195.805 24.3938C193.397 20.7391 192.606 17.8891 193.461 15.9219C194.262 14.0625 196.464 13.125 200 13.125C203.536 13.125 205.738 14.0625 206.544 15.9266C207.395 17.8938 206.605 20.7438 204.2 24.3984C204.096 24.5578 203.992 24.7141 203.888 24.8672L204.356 24.5547C208.011 22.1469 210.861 21.3562 212.828 22.2109C214.688 23.0125 215.625 25.2141 215.625 28.75Z" fill="#7EB26D"/>
<path d="M815.625 3.75C815.625 7.28594 814.688 9.4875 812.823 10.2922C812.28 10.5208 811.694 10.6341 811.105 10.625C810.663 10.621 810.224 10.5723 809.792 10.4797C809.633 10.448 809.492 10.3562 809.398 10.2234C807.204 7.10536 804.704 4.21303 801.938 1.58906C801.697 1.36114 801.375 1.2382 801.044 1.24728C800.712 1.25637 800.398 1.39673 800.17 1.6375C799.942 1.87827 799.819 2.19971 799.829 2.53113C799.838 2.86254 799.978 3.17677 800.219 3.40469C802.537 5.57812 810.239 13.325 812.456 22.1969C812.537 22.5184 812.486 22.8588 812.315 23.143C812.145 23.4272 811.868 23.6321 811.547 23.7125C811.45 23.7368 811.35 23.7494 811.25 23.75C810.972 23.7496 810.701 23.6562 810.482 23.4847C810.262 23.3132 810.107 23.0733 810.039 22.8031C809.395 20.2297 808.219 17.7281 806.842 15.4453C806.798 15.8332 806.698 16.2126 806.545 16.5719C805.737 18.4375 803.536 19.375 800 19.375C796.464 19.375 794.263 18.4375 793.456 16.5719C792.605 14.6062 793.395 11.7563 795.8 8.10156C795.906 7.94531 796.013 7.78906 796.113 7.63281L795.644 7.94531C792.944 9.72969 790.68 10.625 788.889 10.625C788.299 10.6341 787.714 10.5208 787.17 10.2922C785.312 9.4875 784.375 7.28594 784.375 3.75C784.375 0.214063 785.312 -1.9875 787.177 -2.79375C789.144 -3.64531 791.994 -2.85469 795.648 -0.45L796.117 -0.1375L795.805 -0.60625C793.397 -4.26094 792.606 -7.11094 793.461 -9.07812C794.262 -10.9375 796.464 -11.875 800 -11.875C803.536 -11.875 805.738 -10.9375 806.544 -9.07344C807.395 -7.10625 806.605 -4.25625 804.2 -0.601562C804.096 -0.442187 803.992 -0.285937 803.888 -0.132812L804.356 -0.445312C808.011 -2.85312 810.861 -3.64375 812.828 -2.78906C814.688 -1.9875 815.625 0.214063 815.625 3.75Z" fill="#7EB26D"/>
<path d="M433.625 0.75C433.625 4.28594 432.688 6.4875 430.823 7.29219C430.28 7.52076 429.694 7.63409 429.105 7.625C428.663 7.62103 428.224 7.57234 427.792 7.47969C427.633 7.44796 427.492 7.35621 427.398 7.22344C425.204 4.10536 422.704 1.21303 419.938 -1.41094C419.697 -1.63886 419.375 -1.7618 419.044 -1.75272C418.712 -1.74363 418.398 -1.60327 418.17 -1.3625C417.942 -1.12173 417.819 -0.800286 417.829 -0.468874C417.838 -0.137463 417.978 0.176767 418.219 0.404688C420.537 2.57812 428.239 10.325 430.456 19.1969C430.537 19.5184 430.486 19.8588 430.315 20.143C430.145 20.4272 429.868 20.6321 429.547 20.7125C429.45 20.7368 429.35 20.7494 429.25 20.75C428.972 20.7496 428.701 20.6562 428.482 20.4847C428.262 20.3132 428.107 20.0733 428.039 19.8031C427.395 17.2297 426.219 14.7281 424.842 12.4453C424.798 12.8332 424.698 13.2126 424.545 13.5719C423.737 15.4375 421.536 16.375 418 16.375C414.464 16.375 412.263 15.4375 411.456 13.5719C410.605 11.6062 411.395 8.75625 413.8 5.10156C413.906 4.94531 414.013 4.78906 414.113 4.63281L413.644 4.94531C410.944 6.72969 408.68 7.625 406.889 7.625C406.299 7.63409 405.714 7.52076 405.17 7.29219C403.312 6.4875 402.375 4.28594 402.375 0.75C402.375 -2.78594 403.312 -4.9875 405.177 -5.79375C407.144 -6.64531 409.994 -5.85469 413.648 -3.45L414.117 -3.1375L413.805 -3.60625C411.397 -7.26094 410.606 -10.1109 411.461 -12.0781C412.262 -13.9375 414.464 -14.875 418 -14.875C421.536 -14.875 423.738 -13.9375 424.544 -12.0734C425.395 -10.1062 424.605 -7.25625 422.2 -3.60156C422.096 -3.44219 421.992 -3.28594 421.888 -3.13281L422.356 -3.44531C426.011 -5.85312 428.861 -6.64375 430.828 -5.78906C432.688 -4.9875 433.625 -2.78594 433.625 0.75Z" fill="#7EB26D"/>
<path d="M977.625 84.75C977.625 88.2859 976.688 90.4875 974.823 91.2922C974.28 91.5208 973.694 91.6341 973.105 91.625C972.663 91.621 972.224 91.5723 971.792 91.4797C971.633 91.448 971.492 91.3562 971.398 91.2234C969.204 88.1054 966.704 85.213 963.938 82.5891C963.697 82.3611 963.375 82.2382 963.044 82.2473C962.712 82.2564 962.398 82.3967 962.17 82.6375C961.942 82.8783 961.819 83.1997 961.829 83.5311C961.838 83.8625 961.978 84.1768 962.219 84.4047C964.537 86.5781 972.239 94.325 974.456 103.197C974.537 103.518 974.486 103.859 974.315 104.143C974.145 104.427 973.868 104.632 973.547 104.712C973.45 104.737 973.35 104.749 973.25 104.75C972.972 104.75 972.701 104.656 972.482 104.485C972.262 104.313 972.107 104.073 972.039 103.803C971.395 101.23 970.219 98.7281 968.842 96.4453C968.798 96.8332 968.698 97.2126 968.545 97.5719C967.737 99.4375 965.536 100.375 962 100.375C958.464 100.375 956.263 99.4375 955.456 97.5719C954.605 95.6062 955.395 92.7563 957.8 89.1016C957.906 88.9453 958.013 88.7891 958.113 88.6328L957.644 88.9453C954.944 90.7297 952.68 91.625 950.889 91.625C950.299 91.6341 949.714 91.5208 949.17 91.2922C947.312 90.4875 946.375 88.2859 946.375 84.75C946.375 81.2141 947.312 79.0125 949.177 78.2063C951.144 77.3547 953.994 78.1453 957.648 80.55L958.117 80.8625L957.805 80.3938C955.397 76.7391 954.606 73.8891 955.461 71.9219C956.262 70.0625 958.464 69.125 962 69.125C965.536 69.125 967.738 70.0625 968.544 71.9266C969.395 73.8938 968.605 76.7438 966.2 80.3984C966.096 80.5578 965.992 80.7141 965.888 80.8672L966.356 80.5547C970.011 78.1469 972.861 77.3562 974.828 78.2109C976.688 79.0125 977.625 81.2141 977.625 84.75Z" fill="#7EB26D"/>
<path d="M1172.62 -1.25C1172.62 2.28594 1171.69 4.4875 1169.82 5.29219C1169.28 5.52076 1168.69 5.63409 1168.1 5.625C1167.66 5.62103 1167.22 5.57234 1166.79 5.47969C1166.63 5.44796 1166.49 5.35621 1166.4 5.22344C1164.2 2.10536 1161.7 -0.786966 1158.94 -3.41094C1158.7 -3.63886 1158.38 -3.7618 1158.04 -3.75272C1157.71 -3.74363 1157.4 -3.60327 1157.17 -3.3625C1156.94 -3.12173 1156.82 -2.80029 1156.83 -2.46887C1156.84 -2.13746 1156.98 -1.82323 1157.22 -1.59531C1159.54 0.578125 1167.24 8.325 1169.46 17.1969C1169.54 17.5184 1169.49 17.8588 1169.32 18.143C1169.14 18.4272 1168.87 18.6321 1168.55 18.7125C1168.45 18.7368 1168.35 18.7494 1168.25 18.75C1167.97 18.7496 1167.7 18.6562 1167.48 18.4847C1167.26 18.3132 1167.11 18.0733 1167.04 17.8031C1166.4 15.2297 1165.22 12.7281 1163.84 10.4453C1163.8 10.8332 1163.7 11.2126 1163.55 11.5719C1162.74 13.4375 1160.54 14.375 1157 14.375C1153.46 14.375 1151.26 13.4375 1150.46 11.5719C1149.6 9.60625 1150.4 6.75625 1152.8 3.10156C1152.91 2.94531 1153.01 2.78906 1153.11 2.63281L1152.64 2.94531C1149.94 4.72969 1147.68 5.625 1145.89 5.625C1145.3 5.63409 1144.71 5.52076 1144.17 5.29219C1142.31 4.4875 1141.38 2.28594 1141.38 -1.25C1141.38 -4.78594 1142.31 -6.9875 1144.18 -7.79375C1146.14 -8.64531 1148.99 -7.85469 1152.65 -5.45L1153.12 -5.1375L1152.8 -5.60625C1150.4 -9.26094 1149.61 -12.1109 1150.46 -14.0781C1151.26 -15.9375 1153.46 -16.875 1157 -16.875C1160.54 -16.875 1162.74 -15.9375 1163.54 -14.0734C1164.4 -12.1062 1163.6 -9.25625 1161.2 -5.60156C1161.1 -5.44219 1160.99 -5.28594 1160.89 -5.13281L1161.36 -5.44531C1165.01 -7.85312 1167.86 -8.64375 1169.83 -7.78906C1171.69 -6.9875 1172.62 -4.78594 1172.62 -1.25Z" fill="#7EB26D"/>
<path d="M251.625 757.75C251.625 761.286 250.688 763.487 248.823 764.292C248.28 764.521 247.694 764.634 247.105 764.625C246.663 764.621 246.224 764.572 245.792 764.48C245.633 764.448 245.492 764.356 245.398 764.223C243.204 761.105 240.704 758.213 237.938 755.589C237.697 755.361 237.375 755.238 237.044 755.247C236.712 755.256 236.398 755.397 236.17 755.638C235.942 755.878 235.819 756.2 235.829 756.531C235.838 756.863 235.978 757.177 236.219 757.405C238.537 759.578 246.239 767.325 248.456 776.197C248.537 776.518 248.486 776.859 248.315 777.143C248.145 777.427 247.868 777.632 247.547 777.712C247.45 777.737 247.35 777.749 247.25 777.75C246.972 777.75 246.701 777.656 246.482 777.485C246.262 777.313 246.107 777.073 246.039 776.803C245.395 774.23 244.219 771.728 242.842 769.445C242.798 769.833 242.698 770.213 242.545 770.572C241.737 772.438 239.536 773.375 236 773.375C232.464 773.375 230.263 772.438 229.456 770.572C228.605 768.606 229.395 765.756 231.8 762.102C231.906 761.945 232.013 761.789 232.113 761.633L231.644 761.945C228.944 763.73 226.68 764.625 224.889 764.625C224.299 764.634 223.714 764.521 223.17 764.292C221.312 763.487 220.375 761.286 220.375 757.75C220.375 754.214 221.312 752.013 223.177 751.206C225.144 750.355 227.994 751.145 231.648 753.55L232.117 753.863L231.805 753.394C229.397 749.739 228.606 746.889 229.461 744.922C230.262 743.063 232.464 742.125 236 742.125C239.536 742.125 241.738 743.062 242.544 744.927C243.395 746.894 242.605 749.744 240.2 753.398C240.096 753.558 239.992 753.714 239.888 753.867L240.356 753.555C244.011 751.147 246.861 750.356 248.828 751.211C250.688 752.012 251.625 754.214 251.625 757.75Z" fill="#7EB26D"/>
<path d="M344.625 964.75C344.625 968.286 343.688 970.487 341.823 971.292C341.28 971.521 340.694 971.634 340.105 971.625C339.663 971.621 339.224 971.572 338.792 971.48C338.633 971.448 338.492 971.356 338.398 971.223C336.204 968.105 333.704 965.213 330.938 962.589C330.697 962.361 330.375 962.238 330.044 962.247C329.712 962.256 329.398 962.397 329.17 962.638C328.942 962.878 328.819 963.2 328.829 963.531C328.838 963.863 328.978 964.177 329.219 964.405C331.537 966.578 339.239 974.325 341.456 983.197C341.537 983.518 341.486 983.859 341.315 984.143C341.145 984.427 340.868 984.632 340.547 984.712C340.45 984.737 340.35 984.749 340.25 984.75C339.972 984.75 339.701 984.656 339.482 984.485C339.262 984.313 339.107 984.073 339.039 983.803C338.395 981.23 337.219 978.728 335.842 976.445C335.798 976.833 335.698 977.213 335.545 977.572C334.737 979.438 332.536 980.375 329 980.375C325.464 980.375 323.263 979.438 322.456 977.572C321.605 975.606 322.395 972.756 324.8 969.102C324.906 968.945 325.013 968.789 325.113 968.633L324.644 968.945C321.944 970.73 319.68 971.625 317.889 971.625C317.299 971.634 316.714 971.521 316.17 971.292C314.312 970.487 313.375 968.286 313.375 964.75C313.375 961.214 314.312 959.013 316.177 958.206C318.144 957.355 320.994 958.145 324.648 960.55L325.117 960.863L324.805 960.394C322.397 956.739 321.606 953.889 322.461 951.922C323.262 950.063 325.464 949.125 329 949.125C332.536 949.125 334.738 950.062 335.544 951.927C336.395 953.894 335.605 956.744 333.2 960.398C333.096 960.558 332.992 960.714 332.888 960.867L333.356 960.555C337.011 958.147 339.861 957.356 341.828 958.211C343.688 959.012 344.625 961.214 344.625 964.75Z" fill="#7EB26D"/>
<path d="M795.625 841.75C795.625 845.286 794.688 847.487 792.823 848.292C792.28 848.521 791.694 848.634 791.105 848.625C790.663 848.621 790.224 848.572 789.792 848.48C789.633 848.448 789.492 848.356 789.398 848.223C787.204 845.105 784.704 842.213 781.938 839.589C781.697 839.361 781.375 839.238 781.044 839.247C780.712 839.256 780.398 839.397 780.17 839.638C779.942 839.878 779.819 840.2 779.829 840.531C779.838 840.863 779.978 841.177 780.219 841.405C782.537 843.578 790.239 851.325 792.456 860.197C792.537 860.518 792.486 860.859 792.315 861.143C792.145 861.427 791.868 861.632 791.547 861.712C791.45 861.737 791.35 861.749 791.25 861.75C790.972 861.75 790.701 861.656 790.482 861.485C790.262 861.313 790.107 861.073 790.039 860.803C789.395 858.23 788.219 855.728 786.842 853.445C786.798 853.833 786.698 854.213 786.545 854.572C785.737 856.438 783.536 857.375 780 857.375C776.464 857.375 774.263 856.438 773.456 854.572C772.605 852.606 773.395 849.756 775.8 846.102C775.906 845.945 776.013 845.789 776.113 845.633L775.644 845.945C772.944 847.73 770.68 848.625 768.889 848.625C768.299 848.634 767.714 848.521 767.17 848.292C765.312 847.487 764.375 845.286 764.375 841.75C764.375 838.214 765.312 836.013 767.177 835.206C769.144 834.355 771.994 835.145 775.648 837.55L776.117 837.863L775.805 837.394C773.397 833.739 772.606 830.889 773.461 828.922C774.262 827.063 776.464 826.125 780 826.125C783.536 826.125 785.738 827.062 786.544 828.927C787.395 830.894 786.605 833.744 784.2 837.398C784.096 837.558 783.992 837.714 783.888 837.867L784.356 837.555C788.011 835.147 790.861 834.356 792.828 835.211C794.688 836.012 795.625 838.214 795.625 841.75Z" fill="#7EB26D"/>
<path d="M1306.62 672.75C1306.62 676.286 1305.69 678.487 1303.82 679.292C1303.28 679.521 1302.69 679.634 1302.1 679.625C1301.66 679.621 1301.22 679.572 1300.79 679.48C1300.63 679.448 1300.49 679.356 1300.4 679.223C1298.2 676.105 1295.7 673.213 1292.94 670.589C1292.7 670.361 1292.38 670.238 1292.04 670.247C1291.71 670.256 1291.4 670.397 1291.17 670.638C1290.94 670.878 1290.82 671.2 1290.83 671.531C1290.84 671.863 1290.98 672.177 1291.22 672.405C1293.54 674.578 1301.24 682.325 1303.46 691.197C1303.54 691.518 1303.49 691.859 1303.32 692.143C1303.14 692.427 1302.87 692.632 1302.55 692.712C1302.45 692.737 1302.35 692.749 1302.25 692.75C1301.97 692.75 1301.7 692.656 1301.48 692.485C1301.26 692.313 1301.11 692.073 1301.04 691.803C1300.4 689.23 1299.22 686.728 1297.84 684.445C1297.8 684.833 1297.7 685.213 1297.55 685.572C1296.74 687.438 1294.54 688.375 1291 688.375C1287.46 688.375 1285.26 687.438 1284.46 685.572C1283.6 683.606 1284.4 680.756 1286.8 677.102C1286.91 676.945 1287.01 676.789 1287.11 676.633L1286.64 676.945C1283.94 678.73 1281.68 679.625 1279.89 679.625C1279.3 679.634 1278.71 679.521 1278.17 679.292C1276.31 678.487 1275.38 676.286 1275.38 672.75C1275.38 669.214 1276.31 667.013 1278.18 666.206C1280.14 665.355 1282.99 666.145 1286.65 668.55L1287.12 668.863L1286.8 668.394C1284.4 664.739 1283.61 661.889 1284.46 659.922C1285.26 658.063 1287.46 657.125 1291 657.125C1294.54 657.125 1296.74 658.062 1297.54 659.927C1298.4 661.894 1297.6 664.744 1295.2 668.398C1295.1 668.558 1294.99 668.714 1294.89 668.867L1295.36 668.555C1299.01 666.147 1301.86 665.356 1303.83 666.211C1305.69 667.012 1306.62 669.214 1306.62 672.75Z" fill="#7EB26D"/>
<path d="M417.625 609.75C417.625 613.286 416.688 615.487 414.823 616.292C414.28 616.521 413.694 616.634 413.105 616.625C412.663 616.621 412.224 616.572 411.792 616.48C411.633 616.448 411.492 616.356 411.398 616.223C409.204 613.105 406.704 610.213 403.938 607.589C403.697 607.361 403.375 607.238 403.044 607.247C402.712 607.256 402.398 607.397 402.17 607.638C401.942 607.878 401.819 608.2 401.829 608.531C401.838 608.863 401.978 609.177 402.219 609.405C404.537 611.578 412.239 619.325 414.456 628.197C414.537 628.518 414.486 628.859 414.315 629.143C414.145 629.427 413.868 629.632 413.547 629.712C413.45 629.737 413.35 629.749 413.25 629.75C412.972 629.75 412.701 629.656 412.482 629.485C412.262 629.313 412.107 629.073 412.039 628.803C411.395 626.23 410.219 623.728 408.842 621.445C408.798 621.833 408.698 622.213 408.545 622.572C407.737 624.438 405.536 625.375 402 625.375C398.464 625.375 396.263 624.438 395.456 622.572C394.605 620.606 395.395 617.756 397.8 614.102C397.906 613.945 398.013 613.789 398.113 613.633L397.644 613.945C394.944 615.73 392.68 616.625 390.889 616.625C390.299 616.634 389.714 616.521 389.17 616.292C387.312 615.487 386.375 613.286 386.375 609.75C386.375 606.214 387.312 604.013 389.177 603.206C391.144 602.355 393.994 603.145 397.648 605.55L398.117 605.863L397.805 605.394C395.397 601.739 394.606 598.889 395.461 596.922C396.262 595.063 398.464 594.125 402 594.125C405.536 594.125 407.738 595.062 408.544 596.927C409.395 598.894 408.605 601.744 406.2 605.398C406.096 605.558 405.992 605.714 405.888 605.867L406.356 605.555C410.011 603.147 412.861 602.356 414.828 603.211C416.688 604.012 417.625 606.214 417.625 609.75Z" fill="#7EB26D"/>
<path d="M971.625 737.75C971.625 741.286 970.688 743.487 968.823 744.292C968.28 744.521 967.694 744.634 967.105 744.625C966.663 744.621 966.224 744.572 965.792 744.48C965.633 744.448 965.492 744.356 965.398 744.223C963.204 741.105 960.704 738.213 957.938 735.589C957.697 735.361 957.375 735.238 957.044 735.247C956.712 735.256 956.398 735.397 956.17 735.638C955.942 735.878 955.819 736.2 955.829 736.531C955.838 736.863 955.978 737.177 956.219 737.405C958.537 739.578 966.239 747.325 968.456 756.197C968.537 756.518 968.486 756.859 968.315 757.143C968.145 757.427 967.868 757.632 967.547 757.712C967.45 757.737 967.35 757.749 967.25 757.75C966.972 757.75 966.701 757.656 966.482 757.485C966.262 757.313 966.107 757.073 966.039 756.803C965.395 754.23 964.219 751.728 962.842 749.445C962.798 749.833 962.698 750.213 962.545 750.572C961.737 752.438 959.536 753.375 956 753.375C952.464 753.375 950.263 752.438 949.456 750.572C948.605 748.606 949.395 745.756 951.8 742.102C951.906 741.945 952.013 741.789 952.113 741.633L951.644 741.945C948.944 743.73 946.68 744.625 944.889 744.625C944.299 744.634 943.714 744.521 943.17 744.292C941.312 743.487 940.375 741.286 940.375 737.75C940.375 734.214 941.312 732.013 943.177 731.206C945.144 730.355 947.994 731.145 951.648 733.55L952.117 733.863L951.805 733.394C949.397 729.739 948.606 726.889 949.461 724.922C950.262 723.063 952.464 722.125 956 722.125C959.536 722.125 961.738 723.062 962.544 724.927C963.395 726.894 962.605 729.744 960.2 733.398C960.096 733.558 959.992 733.714 959.888 733.867L960.356 733.555C964.011 731.147 966.861 730.356 968.828 731.211C970.688 732.012 971.625 734.214 971.625 737.75Z" fill="#7EB26D"/>
<path d="M113.625 881.75C113.625 885.286 112.688 887.487 110.823 888.292C110.28 888.521 109.694 888.634 109.105 888.625C108.663 888.621 108.224 888.572 107.792 888.48C107.633 888.448 107.492 888.356 107.398 888.223C105.204 885.105 102.704 882.213 99.9375 879.589C99.6967 879.361 99.3753 879.238 99.0439 879.247C98.7125 879.256 98.3982 879.397 98.1703 879.638C97.9424 879.878 97.8195 880.2 97.8285 880.531C97.8376 880.863 97.978 881.177 98.2187 881.405C100.537 883.578 108.239 891.325 110.456 900.197C110.537 900.518 110.486 900.859 110.315 901.143C110.145 901.427 109.868 901.632 109.547 901.712C109.45 901.737 109.35 901.749 109.25 901.75C108.972 901.75 108.701 901.656 108.482 901.485C108.262 901.313 108.107 901.073 108.039 900.803C107.395 898.23 106.219 895.728 104.842 893.445C104.798 893.833 104.698 894.213 104.545 894.572C103.737 896.438 101.536 897.375 98 897.375C94.4641 897.375 92.2625 896.438 91.4563 894.572C90.6047 892.606 91.3953 889.756 93.8 886.102C93.9062 885.945 94.0125 885.789 94.1125 885.633L93.6438 885.945C90.9438 887.73 88.6797 888.625 86.8891 888.625C86.2993 888.634 85.7141 888.521 85.1703 888.292C83.3125 887.487 82.375 885.286 82.375 881.75C82.375 878.214 83.3125 876.013 85.1766 875.206C87.1438 874.355 89.9938 875.145 93.6484 877.55L94.1172 877.863L93.8047 877.394C91.3969 873.739 90.6062 870.889 91.4609 868.922C92.2625 867.063 94.4641 866.125 98 866.125C101.536 866.125 103.738 867.062 104.544 868.927C105.395 870.894 104.605 873.744 102.2 877.398C102.096 877.558 101.992 877.714 101.888 877.867L102.356 877.555C106.011 875.147 108.861 874.356 110.828 875.211C112.688 876.012 113.625 878.214 113.625 881.75Z" fill="#7EB26D"/>
<path d="M634.625 925.75C634.625 929.286 633.688 931.487 631.823 932.292C631.28 932.521 630.694 932.634 630.105 932.625C629.663 932.621 629.224 932.572 628.792 932.48C628.633 932.448 628.492 932.356 628.398 932.223C626.204 929.105 623.704 926.213 620.938 923.589C620.697 923.361 620.375 923.238 620.044 923.247C619.712 923.256 619.398 923.397 619.17 923.638C618.942 923.878 618.819 924.2 618.829 924.531C618.838 924.863 618.978 925.177 619.219 925.405C621.537 927.578 629.239 935.325 631.456 944.197C631.537 944.518 631.486 944.859 631.315 945.143C631.145 945.427 630.868 945.632 630.547 945.712C630.45 945.737 630.35 945.749 630.25 945.75C629.972 945.75 629.701 945.656 629.482 945.485C629.262 945.313 629.107 945.073 629.039 944.803C628.395 942.23 627.219 939.728 625.842 937.445C625.798 937.833 625.698 938.213 625.545 938.572C624.737 940.438 622.536 941.375 619 941.375C615.464 941.375 613.263 940.438 612.456 938.572C611.605 936.606 612.395 933.756 614.8 930.102C614.906 929.945 615.013 929.789 615.113 929.633L614.644 929.945C611.944 931.73 609.68 932.625 607.889 932.625C607.299 932.634 606.714 932.521 606.17 932.292C604.312 931.487 603.375 929.286 603.375 925.75C603.375 922.214 604.312 920.013 606.177 919.206C608.144 918.355 610.994 919.145 614.648 921.55L615.117 921.863L614.805 921.394C612.397 917.739 611.606 914.889 612.461 912.922C613.262 911.063 615.464 910.125 619 910.125C622.536 910.125 624.738 911.062 625.544 912.927C626.395 914.894 625.605 917.744 623.2 921.398C623.096 921.558 622.992 921.714 622.888 921.867L623.356 921.555C627.011 919.147 629.861 918.356 631.828 919.211C633.688 920.012 634.625 922.214 634.625 925.75Z" fill="#7EB26D"/>
<path d="M1141.62 824.75C1141.62 828.286 1140.69 830.487 1138.82 831.292C1138.28 831.521 1137.69 831.634 1137.1 831.625C1136.66 831.621 1136.22 831.572 1135.79 831.48C1135.63 831.448 1135.49 831.356 1135.4 831.223C1133.2 828.105 1130.7 825.213 1127.94 822.589C1127.7 822.361 1127.38 822.238 1127.04 822.247C1126.71 822.256 1126.4 822.397 1126.17 822.638C1125.94 822.878 1125.82 823.2 1125.83 823.531C1125.84 823.863 1125.98 824.177 1126.22 824.405C1128.54 826.578 1136.24 834.325 1138.46 843.197C1138.54 843.518 1138.49 843.859 1138.32 844.143C1138.14 844.427 1137.87 844.632 1137.55 844.712C1137.45 844.737 1137.35 844.749 1137.25 844.75C1136.97 844.75 1136.7 844.656 1136.48 844.485C1136.26 844.313 1136.11 844.073 1136.04 843.803C1135.4 841.23 1134.22 838.728 1132.84 836.445C1132.8 836.833 1132.7 837.213 1132.55 837.572C1131.74 839.438 1129.54 840.375 1126 840.375C1122.46 840.375 1120.26 839.438 1119.46 837.572C1118.6 835.606 1119.4 832.756 1121.8 829.102C1121.91 828.945 1122.01 828.789 1122.11 828.633L1121.64 828.945C1118.94 830.73 1116.68 831.625 1114.89 831.625C1114.3 831.634 1113.71 831.521 1113.17 831.292C1111.31 830.487 1110.38 828.286 1110.38 824.75C1110.38 821.214 1111.31 819.013 1113.18 818.206C1115.14 817.355 1117.99 818.145 1121.65 820.55L1122.12 820.863L1121.8 820.394C1119.4 816.739 1118.61 813.889 1119.46 811.922C1120.26 810.063 1122.46 809.125 1126 809.125C1129.54 809.125 1131.74 810.062 1132.54 811.927C1133.4 813.894 1132.6 816.744 1130.2 820.398C1130.1 820.558 1129.99 820.714 1129.89 820.867L1130.36 820.555C1134.01 818.147 1136.86 817.356 1138.83 818.211C1140.69 819.012 1141.62 821.214 1141.62 824.75Z" fill="#7EB26D"/>
<path d="M491.625 820.75C491.625 824.286 490.688 826.487 488.823 827.292C488.28 827.521 487.694 827.634 487.105 827.625C486.663 827.621 486.224 827.572 485.792 827.48C485.633 827.448 485.492 827.356 485.398 827.223C483.204 824.105 480.704 821.213 477.938 818.589C477.697 818.361 477.375 818.238 477.044 818.247C476.712 818.256 476.398 818.397 476.17 818.638C475.942 818.878 475.819 819.2 475.829 819.531C475.838 819.863 475.978 820.177 476.219 820.405C478.537 822.578 486.239 830.325 488.456 839.197C488.537 839.518 488.486 839.859 488.315 840.143C488.145 840.427 487.868 840.632 487.547 840.712C487.45 840.737 487.35 840.749 487.25 840.75C486.972 840.75 486.701 840.656 486.482 840.485C486.262 840.313 486.107 840.073 486.039 839.803C485.395 837.23 484.219 834.728 482.842 832.445C482.798 832.833 482.698 833.213 482.545 833.572C481.737 835.438 479.536 836.375 476 836.375C472.464 836.375 470.263 835.438 469.456 833.572C468.605 831.606 469.395 828.756 471.8 825.102C471.906 824.945 472.013 824.789 472.113 824.633L471.644 824.945C468.944 826.73 466.68 827.625 464.889 827.625C464.299 827.634 463.714 827.521 463.17 827.292C461.312 826.487 460.375 824.286 460.375 820.75C460.375 817.214 461.312 815.013 463.177 814.206C465.144 813.355 467.994 814.145 471.648 816.55L472.117 816.863L471.805 816.394C469.397 812.739 468.606 809.889 469.461 807.922C470.262 806.063 472.464 805.125 476 805.125C479.536 805.125 481.738 806.062 482.544 807.927C483.395 809.894 482.605 812.744 480.2 816.398C480.096 816.558 479.992 816.714 479.888 816.867L480.356 816.555C484.011 814.147 486.861 813.356 488.828 814.211C490.688 815.012 491.625 817.214 491.625 820.75Z" fill="#7EB26D"/>
<path d="M15.625 1002.75C15.625 1006.29 14.6875 1008.49 12.8234 1009.29C12.2797 1009.52 11.6945 1009.63 11.1047 1009.62C10.6634 1009.62 10.2237 1009.57 9.79219 1009.48C9.63292 1009.45 9.49194 1009.36 9.39844 1009.22C7.2035 1006.11 4.70425 1003.21 1.9375 1000.59C1.69673 1000.36 1.37529 1000.24 1.04387 1000.25C0.712463 1000.26 0.398232 1000.4 0.170312 1000.64C-0.0576086 1000.88 -0.180549 1001.2 -0.171465 1001.53C-0.162381 1001.86 -0.0220175 1002.18 0.218749 1002.4C2.5375 1004.58 10.2391 1012.33 12.4562 1021.2C12.5366 1021.52 12.4859 1021.86 12.3154 1022.14C12.1449 1022.43 11.8684 1022.63 11.5469 1022.71C11.4498 1022.74 11.3501 1022.75 11.25 1022.75C10.9715 1022.75 10.7012 1022.66 10.4818 1022.48C10.2624 1022.31 10.1066 1022.07 10.0391 1021.8C9.39531 1019.23 8.21875 1016.73 6.84219 1014.45C6.79808 1014.83 6.69809 1015.21 6.54531 1015.57C5.7375 1017.44 3.53594 1018.38 0 1018.38C-3.53594 1018.38 -5.7375 1017.44 -6.54375 1015.57C-7.39531 1013.61 -6.60469 1010.76 -4.2 1007.1C-4.09375 1006.95 -3.9875 1006.79 -3.8875 1006.63L-4.35625 1006.95C-7.05625 1008.73 -9.32031 1009.62 -11.1109 1009.62C-11.7007 1009.63 -12.2859 1009.52 -12.8297 1009.29C-14.6875 1008.49 -15.625 1006.29 -15.625 1002.75C-15.625 999.214 -14.6875 997.013 -12.8234 996.206C-10.8562 995.355 -8.00625 996.145 -4.35156 998.55L-3.88281 998.863L-4.19531 998.394C-6.60312 994.739 -7.39375 991.889 -6.53906 989.922C-5.7375 988.063 -3.53594 987.125 0 987.125C3.53594 987.125 5.7375 988.062 6.54375 989.927C7.39531 991.894 6.60469 994.744 4.2 998.398C4.09583 998.558 3.99167 998.714 3.8875 998.867L4.35625 998.555C8.01094 996.147 10.8609 995.356 12.8281 996.211C14.6875 997.012 15.625 999.214 15.625 1002.75Z" fill="#7EB26D"/>
<path d="M1007.62 962.75C1007.62 966.286 1006.69 968.487 1004.82 969.292C1004.28 969.521 1003.69 969.634 1003.1 969.625C1002.66 969.621 1002.22 969.572 1001.79 969.48C1001.63 969.448 1001.49 969.356 1001.4 969.223C999.204 966.105 996.704 963.213 993.938 960.589C993.697 960.361 993.375 960.238 993.044 960.247C992.712 960.256 992.398 960.397 992.17 960.638C991.942 960.878 991.819 961.2 991.829 961.531C991.838 961.863 991.978 962.177 992.219 962.405C994.537 964.578 1002.24 972.325 1004.46 981.197C1004.54 981.518 1004.49 981.859 1004.32 982.143C1004.14 982.427 1003.87 982.632 1003.55 982.712C1003.45 982.737 1003.35 982.749 1003.25 982.75C1002.97 982.75 1002.7 982.656 1002.48 982.485C1002.26 982.313 1002.11 982.073 1002.04 981.803C1001.4 979.23 1000.22 976.728 998.842 974.445C998.798 974.833 998.698 975.213 998.545 975.572C997.737 977.438 995.536 978.375 992 978.375C988.464 978.375 986.263 977.438 985.456 975.572C984.605 973.606 985.395 970.756 987.8 967.102C987.906 966.945 988.013 966.789 988.113 966.633L987.644 966.945C984.944 968.73 982.68 969.625 980.889 969.625C980.299 969.634 979.714 969.521 979.17 969.292C977.312 968.487 976.375 966.286 976.375 962.75C976.375 959.214 977.312 957.013 979.177 956.206C981.144 955.355 983.994 956.145 987.648 958.55L988.117 958.863L987.805 958.394C985.397 954.739 984.606 951.889 985.461 949.922C986.262 948.063 988.464 947.125 992 947.125C995.536 947.125 997.738 948.062 998.544 949.927C999.395 951.894 998.605 954.744 996.2 958.398C996.096 958.558 995.992 958.714 995.888 958.867L996.356 958.555C1000.01 956.147 1002.86 955.356 1004.83 956.211C1006.69 957.012 1007.62 959.214 1007.62 962.75Z" fill="#7EB26D"/>
<path d="M1322.62 1005.75C1322.62 1009.29 1321.69 1011.49 1319.82 1012.29C1319.28 1012.52 1318.69 1012.63 1318.1 1012.62C1317.66 1012.62 1317.22 1012.57 1316.79 1012.48C1316.63 1012.45 1316.49 1012.36 1316.4 1012.22C1314.2 1009.11 1311.7 1006.21 1308.94 1003.59C1308.7 1003.36 1308.38 1003.24 1308.04 1003.25C1307.71 1003.26 1307.4 1003.4 1307.17 1003.64C1306.94 1003.88 1306.82 1004.2 1306.83 1004.53C1306.84 1004.86 1306.98 1005.18 1307.22 1005.4C1309.54 1007.58 1317.24 1015.33 1319.46 1024.2C1319.54 1024.52 1319.49 1024.86 1319.32 1025.14C1319.14 1025.43 1318.87 1025.63 1318.55 1025.71C1318.45 1025.74 1318.35 1025.75 1318.25 1025.75C1317.97 1025.75 1317.7 1025.66 1317.48 1025.48C1317.26 1025.31 1317.11 1025.07 1317.04 1024.8C1316.4 1022.23 1315.22 1019.73 1313.84 1017.45C1313.8 1017.83 1313.7 1018.21 1313.55 1018.57C1312.74 1020.44 1310.54 1021.38 1307 1021.38C1303.46 1021.38 1301.26 1020.44 1300.46 1018.57C1299.6 1016.61 1300.4 1013.76 1302.8 1010.1C1302.91 1009.95 1303.01 1009.79 1303.11 1009.63L1302.64 1009.95C1299.94 1011.73 1297.68 1012.62 1295.89 1012.62C1295.3 1012.63 1294.71 1012.52 1294.17 1012.29C1292.31 1011.49 1291.38 1009.29 1291.38 1005.75C1291.38 1002.21 1292.31 1000.01 1294.18 999.206C1296.14 998.355 1298.99 999.145 1302.65 1001.55L1303.12 1001.86L1302.8 1001.39C1300.4 997.739 1299.61 994.889 1300.46 992.922C1301.26 991.063 1303.46 990.125 1307 990.125C1310.54 990.125 1312.74 991.062 1313.54 992.927C1314.4 994.894 1313.6 997.744 1311.2 1001.4C1311.1 1001.56 1310.99 1001.71 1310.89 1001.87L1311.36 1001.55C1315.01 999.147 1317.86 998.356 1319.83 999.211C1321.69 1000.01 1322.62 1002.21 1322.62 1005.75Z" fill="#7EB26D"/>
<path d="M1399.62 819.75C1399.62 823.286 1398.69 825.487 1396.82 826.292C1396.28 826.521 1395.69 826.634 1395.1 826.625C1394.66 826.621 1394.22 826.572 1393.79 826.48C1393.63 826.448 1393.49 826.356 1393.4 826.223C1391.2 823.105 1388.7 820.213 1385.94 817.589C1385.7 817.361 1385.38 817.238 1385.04 817.247C1384.71 817.256 1384.4 817.397 1384.17 817.638C1383.94 817.878 1383.82 818.2 1383.83 818.531C1383.84 818.863 1383.98 819.177 1384.22 819.405C1386.54 821.578 1394.24 829.325 1396.46 838.197C1396.54 838.518 1396.49 838.859 1396.32 839.143C1396.14 839.427 1395.87 839.632 1395.55 839.712C1395.45 839.737 1395.35 839.749 1395.25 839.75C1394.97 839.75 1394.7 839.656 1394.48 839.485C1394.26 839.313 1394.11 839.073 1394.04 838.803C1393.4 836.23 1392.22 833.728 1390.84 831.445C1390.8 831.833 1390.7 832.213 1390.55 832.572C1389.74 834.438 1387.54 835.375 1384 835.375C1380.46 835.375 1378.26 834.438 1377.46 832.572C1376.6 830.606 1377.4 827.756 1379.8 824.102C1379.91 823.945 1380.01 823.789 1380.11 823.633L1379.64 823.945C1376.94 825.73 1374.68 826.625 1372.89 826.625C1372.3 826.634 1371.71 826.521 1371.17 826.292C1369.31 825.487 1368.38 823.286 1368.38 819.75C1368.38 816.214 1369.31 814.013 1371.18 813.206C1373.14 812.355 1375.99 813.145 1379.65 815.55L1380.12 815.863L1379.8 815.394C1377.4 811.739 1376.61 808.889 1377.46 806.922C1378.26 805.063 1380.46 804.125 1384 804.125C1387.54 804.125 1389.74 805.062 1390.54 806.927C1391.4 808.894 1390.6 811.744 1388.2 815.398C1388.1 815.558 1387.99 815.714 1387.89 815.867L1388.36 815.555C1392.01 813.147 1394.86 812.356 1396.83 813.211C1398.69 814.012 1399.62 816.214 1399.62 819.75Z" fill="#7EB26D"/>
<path d="M15.625 105.75C15.625 109.286 14.6875 111.487 12.8234 112.292C12.2797 112.521 11.6945 112.634 11.1047 112.625C10.6634 112.621 10.2237 112.572 9.79219 112.48C9.63292 112.448 9.49194 112.356 9.39844 112.223C7.2035 109.105 4.70425 106.213 1.9375 103.589C1.69673 103.361 1.37529 103.238 1.04387 103.247C0.712463 103.256 0.398232 103.397 0.170312 103.638C-0.0576086 103.878 -0.180549 104.2 -0.171465 104.531C-0.162381 104.863 -0.0220175 105.177 0.218749 105.405C2.5375 107.578 10.2391 115.325 12.4562 124.197C12.5366 124.518 12.4859 124.859 12.3154 125.143C12.1449 125.427 11.8684 125.632 11.5469 125.712C11.4498 125.737 11.3501 125.749 11.25 125.75C10.9715 125.75 10.7012 125.656 10.4818 125.485C10.2624 125.313 10.1066 125.073 10.0391 124.803C9.39531 122.23 8.21875 119.728 6.84219 117.445C6.79808 117.833 6.69809 118.213 6.54531 118.572C5.7375 120.438 3.53594 121.375 0 121.375C-3.53594 121.375 -5.7375 120.438 -6.54375 118.572C-7.39531 116.606 -6.60469 113.756 -4.2 110.102C-4.09375 109.945 -3.9875 109.789 -3.8875 109.633L-4.35625 109.945C-7.05625 111.73 -9.32031 112.625 -11.1109 112.625C-11.7007 112.634 -12.2859 112.521 -12.8297 112.292C-14.6875 111.487 -15.625 109.286 -15.625 105.75C-15.625 102.214 -14.6875 100.013 -12.8234 99.2063C-10.8562 98.3547 -8.00625 99.1453 -4.35156 101.55L-3.88281 101.863L-4.19531 101.394C-6.60312 97.7391 -7.39375 94.8891 -6.53906 92.9219C-5.7375 91.0625 -3.53594 90.125 0 90.125C3.53594 90.125 5.7375 91.0625 6.54375 92.9266C7.39531 94.8938 6.60469 97.7438 4.2 101.398C4.09583 101.558 3.99167 101.714 3.8875 101.867L4.35625 101.555C8.01094 99.1469 10.8609 98.3562 12.8281 99.2109C14.6875 100.012 15.625 102.214 15.625 105.75Z" fill="#7EB26D"/>
<path d="M559.625 189.75C559.625 193.286 558.688 195.487 556.823 196.292C556.28 196.521 555.694 196.634 555.105 196.625C554.663 196.621 554.224 196.572 553.792 196.48C553.633 196.448 553.492 196.356 553.398 196.223C551.204 193.105 548.704 190.213 545.938 187.589C545.697 187.361 545.375 187.238 545.044 187.247C544.712 187.256 544.398 187.397 544.17 187.638C543.942 187.878 543.819 188.2 543.829 188.531C543.838 188.863 543.978 189.177 544.219 189.405C546.537 191.578 554.239 199.325 556.456 208.197C556.537 208.518 556.486 208.859 556.315 209.143C556.145 209.427 555.868 209.632 555.547 209.712C555.45 209.737 555.35 209.749 555.25 209.75C554.972 209.75 554.701 209.656 554.482 209.485C554.262 209.313 554.107 209.073 554.039 208.803C553.395 206.23 552.219 203.728 550.842 201.445C550.798 201.833 550.698 202.213 550.545 202.572C549.737 204.438 547.536 205.375 544 205.375C540.464 205.375 538.263 204.438 537.456 202.572C536.605 200.606 537.395 197.756 539.8 194.102C539.906 193.945 540.013 193.789 540.113 193.633L539.644 193.945C536.944 195.73 534.68 196.625 532.889 196.625C532.299 196.634 531.714 196.521 531.17 196.292C529.312 195.487 528.375 193.286 528.375 189.75C528.375 186.214 529.312 184.013 531.177 183.206C533.144 182.355 535.994 183.145 539.648 185.55L540.117 185.863L539.805 185.394C537.397 181.739 536.606 178.889 537.461 176.922C538.262 175.063 540.464 174.125 544 174.125C547.536 174.125 549.738 175.062 550.544 176.927C551.395 178.894 550.605 181.744 548.2 185.398C548.096 185.558 547.992 185.714 547.888 185.867L548.356 185.555C552.011 183.147 554.861 182.356 556.828 183.211C558.688 184.012 559.625 186.214 559.625 189.75Z" fill="#7EB26D"/>
<path d="M646.625 65.75C646.625 69.2859 645.688 71.4875 643.823 72.2922C643.28 72.5208 642.694 72.6341 642.105 72.625C641.663 72.621 641.224 72.5723 640.792 72.4797C640.633 72.448 640.492 72.3562 640.398 72.2234C638.204 69.1054 635.704 66.213 632.938 63.5891C632.697 63.3611 632.375 63.2382 632.044 63.2473C631.712 63.2564 631.398 63.3967 631.17 63.6375C630.942 63.8783 630.819 64.1997 630.829 64.5311C630.838 64.8625 630.978 65.1768 631.219 65.4047C633.537 67.5781 641.239 75.325 643.456 84.1969C643.537 84.5184 643.486 84.8588 643.315 85.143C643.145 85.4272 642.868 85.6321 642.547 85.7125C642.45 85.7368 642.35 85.7494 642.25 85.75C641.972 85.7496 641.701 85.6562 641.482 85.4847C641.262 85.3132 641.107 85.0733 641.039 84.8031C640.395 82.2297 639.219 79.7281 637.842 77.4453C637.798 77.8332 637.698 78.2126 637.545 78.5719C636.737 80.4375 634.536 81.375 631 81.375C627.464 81.375 625.263 80.4375 624.456 78.5719C623.605 76.6062 624.395 73.7563 626.8 70.1016C626.906 69.9453 627.013 69.7891 627.113 69.6328L626.644 69.9453C623.944 71.7297 621.68 72.625 619.889 72.625C619.299 72.6341 618.714 72.5208 618.17 72.2922C616.312 71.4875 615.375 69.2859 615.375 65.75C615.375 62.2141 616.312 60.0125 618.177 59.2063C620.144 58.3547 622.994 59.1453 626.648 61.55L627.117 61.8625L626.805 61.3938C624.397 57.7391 623.606 54.8891 624.461 52.9219C625.262 51.0625 627.464 50.125 631 50.125C634.536 50.125 636.738 51.0625 637.544 52.9266C638.395 54.8938 637.605 57.7438 635.2 61.3984C635.096 61.5578 634.992 61.7141 634.888 61.8672L635.356 61.5547C639.011 59.1469 641.861 58.3562 643.828 59.2109C645.688 60.0125 646.625 62.2141 646.625 65.75Z" fill="#7EB26D"/>
<path d="M15.625 406.75C15.625 410.286 14.6875 412.487 12.8234 413.292C12.2797 413.521 11.6945 413.634 11.1047 413.625C10.6634 413.621 10.2237 413.572 9.79219 413.48C9.63292 413.448 9.49194 413.356 9.39844 413.223C7.2035 410.105 4.70425 407.213 1.9375 404.589C1.69673 404.361 1.37529 404.238 1.04387 404.247C0.712463 404.256 0.398232 404.397 0.170312 404.638C-0.0576086 404.878 -0.180549 405.2 -0.171465 405.531C-0.162381 405.863 -0.0220175 406.177 0.218749 406.405C2.5375 408.578 10.2391 416.325 12.4562 425.197C12.5366 425.518 12.4859 425.859 12.3154 426.143C12.1449 426.427 11.8684 426.632 11.5469 426.712C11.4498 426.737 11.3501 426.749 11.25 426.75C10.9715 426.75 10.7012 426.656 10.4818 426.485C10.2624 426.313 10.1066 426.073 10.0391 425.803C9.39531 423.23 8.21875 420.728 6.84219 418.445C6.79808 418.833 6.69809 419.213 6.54531 419.572C5.7375 421.438 3.53594 422.375 0 422.375C-3.53594 422.375 -5.7375 421.438 -6.54375 419.572C-7.39531 417.606 -6.60469 414.756 -4.2 411.102C-4.09375 410.945 -3.9875 410.789 -3.8875 410.633L-4.35625 410.945C-7.05625 412.73 -9.32031 413.625 -11.1109 413.625C-11.7007 413.634 -12.2859 413.521 -12.8297 413.292C-14.6875 412.487 -15.625 410.286 -15.625 406.75C-15.625 403.214 -14.6875 401.013 -12.8234 400.206C-10.8562 399.355 -8.00625 400.145 -4.35156 402.55L-3.88281 402.863L-4.19531 402.394C-6.60312 398.739 -7.39375 395.889 -6.53906 393.922C-5.7375 392.063 -3.53594 391.125 0 391.125C3.53594 391.125 5.7375 392.062 6.54375 393.927C7.39531 395.894 6.60469 398.744 4.2 402.398C4.09583 402.558 3.99167 402.714 3.8875 402.867L4.35625 402.555C8.01094 400.147 10.8609 399.356 12.8281 400.211C14.6875 401.012 15.625 403.214 15.625 406.75Z" fill="#7EB26D"/>
<path d="M559.625 490.75C559.625 494.286 558.688 496.487 556.823 497.292C556.28 497.521 555.694 497.634 555.105 497.625C554.663 497.621 554.224 497.572 553.792 497.48C553.633 497.448 553.492 497.356 553.398 497.223C551.204 494.105 548.704 491.213 545.938 488.589C545.697 488.361 545.375 488.238 545.044 488.247C544.712 488.256 544.398 488.397 544.17 488.638C543.942 488.878 543.819 489.2 543.829 489.531C543.838 489.863 543.978 490.177 544.219 490.405C546.537 492.578 554.239 500.325 556.456 509.197C556.537 509.518 556.486 509.859 556.315 510.143C556.145 510.427 555.868 510.632 555.547 510.712C555.45 510.737 555.35 510.749 555.25 510.75C554.972 510.75 554.701 510.656 554.482 510.485C554.262 510.313 554.107 510.073 554.039 509.803C553.395 507.23 552.219 504.728 550.842 502.445C550.798 502.833 550.698 503.213 550.545 503.572C549.737 505.438 547.536 506.375 544 506.375C540.464 506.375 538.263 505.438 537.456 503.572C536.605 501.606 537.395 498.756 539.8 495.102C539.906 494.945 540.013 494.789 540.113 494.633L539.644 494.945C536.944 496.73 534.68 497.625 532.889 497.625C532.299 497.634 531.714 497.521 531.17 497.292C529.312 496.487 528.375 494.286 528.375 490.75C528.375 487.214 529.312 485.013 531.177 484.206C533.144 483.355 535.994 484.145 539.648 486.55L540.117 486.863L539.805 486.394C537.397 482.739 536.606 479.889 537.461 477.922C538.262 476.063 540.464 475.125 544 475.125C547.536 475.125 549.738 476.062 550.544 477.927C551.395 479.894 550.605 482.744 548.2 486.398C548.096 486.558 547.992 486.714 547.888 486.867L548.356 486.555C552.011 484.147 554.861 483.356 556.828 484.211C558.688 485.012 559.625 487.214 559.625 490.75Z" fill="#7EB26D"/>
<path d="M1070.62 317.75C1070.62 321.286 1069.69 323.487 1067.82 324.292C1067.28 324.521 1066.69 324.634 1066.1 324.625C1065.66 324.621 1065.22 324.572 1064.79 324.48C1064.63 324.448 1064.49 324.356 1064.4 324.223C1062.2 321.105 1059.7 318.213 1056.94 315.589C1056.7 315.361 1056.38 315.238 1056.04 315.247C1055.71 315.256 1055.4 315.397 1055.17 315.638C1054.94 315.878 1054.82 316.2 1054.83 316.531C1054.84 316.863 1054.98 317.177 1055.22 317.405C1057.54 319.578 1065.24 327.325 1067.46 336.197C1067.54 336.518 1067.49 336.859 1067.32 337.143C1067.14 337.427 1066.87 337.632 1066.55 337.712C1066.45 337.737 1066.35 337.749 1066.25 337.75C1065.97 337.75 1065.7 337.656 1065.48 337.485C1065.26 337.313 1065.11 337.073 1065.04 336.803C1064.4 334.23 1063.22 331.728 1061.84 329.445C1061.8 329.833 1061.7 330.213 1061.55 330.572C1060.74 332.438 1058.54 333.375 1055 333.375C1051.46 333.375 1049.26 332.438 1048.46 330.572C1047.6 328.606 1048.4 325.756 1050.8 322.102C1050.91 321.945 1051.01 321.789 1051.11 321.633L1050.64 321.945C1047.94 323.73 1045.68 324.625 1043.89 324.625C1043.3 324.634 1042.71 324.521 1042.17 324.292C1040.31 323.487 1039.38 321.286 1039.38 317.75C1039.38 314.214 1040.31 312.013 1042.18 311.206C1044.14 310.355 1046.99 311.145 1050.65 313.55L1051.12 313.863L1050.8 313.394C1048.4 309.739 1047.61 306.889 1048.46 304.922C1049.26 303.063 1051.46 302.125 1055 302.125C1058.54 302.125 1060.74 303.062 1061.54 304.927C1062.4 306.894 1061.6 309.744 1059.2 313.398C1059.1 313.558 1058.99 313.714 1058.89 313.867L1059.36 313.555C1063.01 311.147 1065.86 310.356 1067.83 311.211C1069.69 312.012 1070.62 314.214 1070.62 317.75Z" fill="#7EB26D"/>
</svg>
